<?xml version="1.0" encoding="UTF-8" standalone="no"?>
<svg
   xmlns:dc="http://purl.org/dc/elements/1.1/"
   xmlns:cc="http://creativecommons.org/ns#"
   xmlns:rdf="http://www.w3.org/1999/02/22-rdf-syntax-ns#"
   xmlns:svg="http://www.w3.org/2000/svg"
   xmlns="http://www.w3.org/2000/svg"
   xmlns:sodipodi="http://sodipodi.sourceforge.net/DTD/sodipodi-0.dtd"
   xmlns:inkscape="http://www.inkscape.org/namespaces/inkscape"
   height="26.882915"
   width="26.961563"
   inkscape:version="1.0rc1 (09960d6, 2020-04-09)"
   sodipodi:docname="Winden_vA_2 copy.svg"
   version="1.1"
   viewBox="0 0 26.961564 26.882915"
   data-name="Layer 1"
   id="Layer_1">
  <metadata
     id="metadata858">
    <rdf:RDF>
      <cc:Work
         rdf:about="">
        <dc:format>image/svg+xml</dc:format>
        <dc:type
           rdf:resource="http://purl.org/dc/dcmitype/StillImage" />
        <dc:title></dc:title>
      </cc:Work>
    </rdf:RDF>
  </metadata>
  <sodipodi:namedview
     fit-margin-bottom="0"
     fit-margin-right="0"
     fit-margin-left="0"
     fit-margin-top="0"
     inkscape:current-layer="Layer_1"
     inkscape:window-maximized="0"
     inkscape:window-y="25"
     inkscape:window-x="0"
     inkscape:cy="5.9600862"
     inkscape:cx="52.789393"
     inkscape:zoom="4.3539188"
     showgrid="false"
     id="namedview856"
     inkscape:window-height="757"
     inkscape:window-width="1440"
     inkscape:pageshadow="2"
     inkscape:pageopacity="0"
     guidetolerance="10"
     gridtolerance="10"
     objecttolerance="10"
     borderopacity="1"
     bordercolor="#666666"
     pagecolor="#ffffff" />
  <defs
     id="defs835">
    <style
       id="style833">.cls-1{fill:#282f39;}.cls-2{fill:#88b3ff;}</style>
  </defs>
  <path
     inkscape:connector-curvature="0"
     id="path851"
     d="m 25.7,7.6826711 -2.67,4.6399999 v 0 l -1.28,2.22 v 0 l -0.45,0.79 -1.58,2.74 a 1.1107317,1.1107317 0 0 1 -1.93,-1.1 v 0 l 1.37,-2.38 0.19,-0.32 1.1,-1.9 0.72,-1.27 v 0 0 a 2.35,2.35 0 0 0 0.19,-0.39 1.87,1.87 0 0 0 0.13,-0.4 3.28,3.28 0 0 0 0.08,-0.4099999 2.82,2.82 0 0 0 0,-0.82 v -0.2 a 1.46,1.46 0 0 0 0,-0.2 0.61,0.61 0 0 0 0,-0.13 0.13,0.13 0 0 0 0,-0.08 v 0 a 1.31,1.31 0 0 0 0,-0.15 2.63,2.63 0 0 0 -0.24,-0.51 l -0.15,-0.23 v 0 l -0.17,-0.23 v 0 a 3.41,3.41 0 0 0 -0.87,-0.72 3.48,3.48 0 0 0 -1.66,-0.44 3.3,3.3 0 0 0 -2.87,1.66 l -2.66,4.6099999 v 0 l -1.28,2.22 -0.45,0.79 -1.73,2.6 a 1.11,1.11 0 0 1 -1.92,-1.1 v 0 l 1.37,-2.38 v 0 l 0.19,-0.32 1.09,-1.9 v 0 l 0.74,-1.3 v 0 0 a 3.29,3.29 0 0 0 0.28,-2.5899999 2.83,2.83 0 0 0 -0.11,-0.31 2.87,2.87 0 0 0 -0.2,-0.39 2.69,2.69 0 0 0 -0.34,-0.49 v 0 a 3.14,3.14 0 0 0 -1.91,-1.1 3.05,3.05 0 0 0 -0.6,-0.06 3.3,3.3 0 0 0 -2.88,1.66 l -2.32,3.9999999 -0.06,0.11 a 1.13,1.13 0 0 1 -0.92,0.49 H 0 A 13.5,13.5 0 0 1 25.67,7.7526711 Z"
     class="cls-2" />
  <path
     inkscape:connector-curvature="0"
     id="path853"
     d="m 26.96,13.432671 a 13.5,13.5 0 0 1 -26.95,1.11 h 3.18 a 1.09,1.09 0 0 0 0.92,-0.51 v 0 -0.1 0 l 0.91,-1.58 0.46,-0.8 1.57,-2.7099999 a 1.11,1.11 0 0 1 1.92,1.1 v 0 L 7.6,12.332671 v 0 l -0.18,0.31 -1.1,1.91 v 0 l -0.73,1.26 v 0 a 3.31,3.31 0 0 0 -0.29,2.58 c 0,0.1 0.07,0.21 0.11,0.31 l 0.09,0.19 0.1,0.18 a 3.59,3.59 0 0 0 0.35,0.49 v 0 a 3.51,3.51 0 0 0 0.86,0.71 3.3,3.3 0 0 0 1.06,0.38 2.45,2.45 0 0 0 0.6,0.06 3.3,3.3 0 0 0 2.88,-1.66 l 2.66,-4.6 v 0 l 1.28,-2.22 v 0 l 2,-3.5099999 a 1.13,1.13 0 0 1 1.52,-0.4 1.11,1.11 0 0 1 0.41,1.5 v 0 l -1.26,2.4999999 -0.19,0.31 -1.09,1.91 v 0 l -0.72,1.26 v 0 c 0,0.07 -0.07,0.13 -0.1,0.19 l -0.16,0.4 c 0,0.14 -0.07,0.27 -0.11,0.4 v 0.12 a 0.59,0.59 0 0 0 0,0.14 v 0.07 a 2.68,2.68 0 0 0 0,0.49 0.86,0.86 0 0 0 0,0.16 v 0 0.22 a 0.83,0.83 0 0 0 0,0.15 0.2,0.2 0 0 0 0,0.07 v 0.16 a 3,3 0 0 0 0.65,1.19 v 0 a 3.17,3.17 0 0 0 0.86,0.71 3.14,3.14 0 0 0 1.06,0.38 2.4,2.4 0 0 0 0.6,0.06 3.3,3.3 0 0 0 2.87,-1.66 l 2.67,-4.6 v 0 l 1.28,-2.22 v 0 l 1.07,-1.86 a 13.25,13.25 0 0 1 0.31,3.06 z"
     class="cls-2" />
</svg>
