<?xml version="1.0" encoding="UTF-8" standalone="no"?>
<svg
   xmlns:dc="http://purl.org/dc/elements/1.1/"
   xmlns:cc="http://creativecommons.org/ns#"
   xmlns:rdf="http://www.w3.org/1999/02/22-rdf-syntax-ns#"
   xmlns:svg="http://www.w3.org/2000/svg"
   xmlns="http://www.w3.org/2000/svg"
   xmlns:sodipodi="http://sodipodi.sourceforge.net/DTD/sodipodi-0.dtd"
   xmlns:inkscape="http://www.inkscape.org/namespaces/inkscape"
   width="150"
   height="151"
   viewBox="0 0 150 151"
   fill="none"
   version="1.1"
   id="svg92"
   sodipodi:docname="select.svg"
   inkscape:version="1.0.2 (e86c870879, 2021-01-15, custom)">
  <metadata
     id="metadata98">
    <rdf:RDF>
      <cc:Work
         rdf:about="">
        <dc:format>image/svg+xml</dc:format>
        <dc:type
           rdf:resource="http://purl.org/dc/dcmitype/StillImage" />
        <dc:title></dc:title>
      </cc:Work>
    </rdf:RDF>
  </metadata>
  <defs
     id="defs96" />
  <sodipodi:namedview
     pagecolor="#ffffff"
     bordercolor="#666666"
     borderopacity="1"
     objecttolerance="10"
     gridtolerance="10"
     guidetolerance="10"
     inkscape:pageopacity="0"
     inkscape:pageshadow="2"
     inkscape:window-width="1280"
     inkscape:window-height="1366"
     id="namedview94"
     showgrid="false"
     inkscape:zoom="4.1703042"
     inkscape:cx="72.572914"
     inkscape:cy="115.63661"
     inkscape:window-x="0"
     inkscape:window-y="38"
     inkscape:window-maximized="0"
     inkscape:current-layer="svg92"
     inkscape:document-rotation="0" />
  <g
     style="fill:none"
     id="g114"
     transform="translate(37.999794,24.274235)">
    <path
       d="M 37,0.98291 V 74.9345"
       stroke="#000000"
       stroke-width="4"
       id="path100" />
    <line
       x1="0.0244141"
       y1="37.958698"
       x2="73.975998"
       y2="37.958698"
       stroke="#000000"
       stroke-width="4"
       id="line102" />
  </g>
  <text
     xml:space="preserve"
     style="font-size:40px;line-height:1.25;font-family:sans-serif;word-spacing:0px"
     x="5.4757891"
     y="-41.060719"
     id="text16"><tspan
       sodipodi:role="line"
       id="tspan14"
       x="5.4757891"
       y="-41.060719" /></text>
  <g
     aria-label="select"
     id="text94"
     style="font-size:20px;line-height:1.25;font-family:sans-serif;word-spacing:0px">
    <path
       d="m 50.710052,128.805 q -1.88,0 -3.08,-0.86 -1.18,-0.88 -1.32,-2.38 h 1.44 q 0.1,0.92 0.86,1.5 0.78,0.56 2.08,0.56 1.14,0 1.78,-0.54 0.66,-0.54 0.66,-1.34 0,-0.56 -0.36,-0.92 -0.36,-0.36 -0.92,-0.56 -0.54,-0.22 -1.48,-0.46 -1.22,-0.32 -1.98,-0.64 -0.76,-0.32 -1.3,-0.94 -0.52,-0.64 -0.52,-1.7 0,-0.8 0.48,-1.48 0.48,-0.68 1.36,-1.08 0.88,-0.4 2,-0.4 1.76,0 2.84,0.9 1.08,0.88 1.16,2.44 h -1.4 q -0.06,-0.96 -0.76,-1.54 -0.68,-0.6 -1.88,-0.6 -1.06,0 -1.72,0.5 -0.66,0.5 -0.66,1.24 0,0.64 0.38,1.06 0.4,0.4 0.98,0.64 0.58,0.22 1.56,0.5 1.18,0.32 1.88,0.62 0.7,0.3 1.2,0.88 0.5,0.58 0.52,1.54 0,0.88 -0.48,1.58 -0.48,0.68 -1.34,1.08 -0.86,0.4 -1.98,0.4 z"
       style="font-style:normal;font-variant:normal;font-weight:300;font-stretch:normal;font-size:20px;font-family:Poppins;-inkscape-font-specification:'Poppins Light';fill:#000000"
       id="path200" />
    <path
       d="m 67.030018,122.625 q 0,0.72 -0.04,1.1 h -9.06 q 0.06,1.24 0.6,2.12 0.54,0.88 1.42,1.34 0.88,0.44 1.92,0.44 1.36,0 2.28,-0.66 0.94,-0.66 1.24,-1.78 h 1.48 q -0.4,1.6 -1.72,2.62 -1.3,1 -3.28,1 -1.54,0 -2.76,-0.68 -1.22,-0.7 -1.92,-1.96 -0.68,-1.28 -0.68,-2.98 0,-1.7 0.68,-2.98 0.68,-1.28 1.9,-1.96 1.22,-0.68 2.78,-0.68 1.56,0 2.72,0.68 1.18,0.68 1.8,1.84 0.64,1.14 0.64,2.54 z m -1.42,-0.04 q 0.02,-1.22 -0.5,-2.08 -0.5,-0.86 -1.38,-1.3 -0.88,-0.44 -1.92,-0.44 -1.56,0 -2.66,1 -1.1,1 -1.22,2.82 z"
       style="font-style:normal;font-variant:normal;font-weight:300;font-stretch:normal;font-size:20px;font-family:Poppins;-inkscape-font-specification:'Poppins Light';fill:#000000"
       id="path202" />
    <path
       d="m 70.990013,113.845 v 14.8 h -1.4 v -14.8 z"
       style="font-style:normal;font-variant:normal;font-weight:300;font-stretch:normal;font-size:20px;font-family:Poppins;-inkscape-font-specification:'Poppins Light';fill:#000000"
       id="path204" />
    <path
       d="m 84.049977,122.625 q 0,0.72 -0.04,1.1 h -9.06 q 0.06,1.24 0.6,2.12 0.54,0.88 1.42,1.34 0.88,0.44 1.92,0.44 1.36,0 2.28,-0.66 0.94,-0.66 1.24,-1.78 h 1.48 q -0.4,1.6 -1.72,2.62 -1.3,1 -3.28,1 -1.54,0 -2.76,-0.68 -1.22,-0.7 -1.92,-1.96 -0.68,-1.28 -0.68,-2.98 0,-1.7 0.68,-2.98 0.68,-1.28 1.9,-1.96 1.22,-0.68 2.78,-0.68 1.56,0 2.72,0.68 1.18,0.68 1.8,1.84 0.64,1.14 0.64,2.54 z m -1.42,-0.04 q 0.02,-1.22 -0.5,-2.08 -0.5,-0.86 -1.38,-1.3 -0.88,-0.44 -1.92,-0.44 -1.56,0 -2.66,1 -1.1,1 -1.22,2.82 z"
       style="font-style:normal;font-variant:normal;font-weight:300;font-stretch:normal;font-size:20px;font-family:Poppins;-inkscape-font-specification:'Poppins Light';fill:#000000"
       id="path206" />
    <path
       d="m 85.969972,123.185 q 0,-1.7 0.68,-2.96 0.68,-1.28 1.88,-1.96 1.2,-0.7 2.74,-0.7 2.02,0 3.32,1 1.32,1 1.7,2.72 h -1.5 q -0.28,-1.18 -1.22,-1.84 -0.92,-0.68 -2.3,-0.68 -1.1,0 -1.98,0.5 -0.88,0.5 -1.4,1.5 -0.5,0.98 -0.5,2.42 0,1.44 0.5,2.44 0.52,1 1.4,1.5 0.88,0.5 1.98,0.5 1.38,0 2.3,-0.66 0.94,-0.68 1.22,-1.88 h 1.5 q -0.38,1.68 -1.7,2.7 -1.32,1.02 -3.32,1.02 -1.54,0 -2.74,-0.68 -1.2,-0.7 -1.88,-1.96 -0.68,-1.28 -0.68,-2.98 z"
       style="font-style:normal;font-variant:normal;font-weight:300;font-stretch:normal;font-size:20px;font-family:Poppins;-inkscape-font-specification:'Poppins Light';fill:#000000"
       id="path208" />
    <path
       d="m 100.68995,118.905 v 6.78 q 0,1 0.38,1.38 0.38,0.38 1.34,0.38 h 1.28 v 1.2 h -1.5 q -1.48,0 -2.199999,-0.68 -0.72,-0.7 -0.72,-2.28 v -6.78 h -1.52 v -1.18 h 1.52 v -2.74 h 1.419999 v 2.74 h 3 v 1.18 z"
       style="font-style:normal;font-variant:normal;font-weight:300;font-stretch:normal;font-size:20px;font-family:Poppins;-inkscape-font-specification:'Poppins Light';fill:#000000"
       id="path210" />
  </g>
</svg>
