<?xml version="1.0" encoding="UTF-8" standalone="no"?>
<svg
   xmlns:dc="http://purl.org/dc/elements/1.1/"
   xmlns:cc="http://creativecommons.org/ns#"
   xmlns:rdf="http://www.w3.org/1999/02/22-rdf-syntax-ns#"
   xmlns:svg="http://www.w3.org/2000/svg"
   xmlns="http://www.w3.org/2000/svg"
   xmlns:sodipodi="http://sodipodi.sourceforge.net/DTD/sodipodi-0.dtd"
   xmlns:inkscape="http://www.inkscape.org/namespaces/inkscape"
   width="150"
   height="151"
   viewBox="0 0 150 151"
   fill="none"
   version="1.1"
   id="svg92"
   sodipodi:docname="select_mobile_source.svg"
   inkscape:version="1.0.2 (e86c870879, 2021-01-15, custom)">
  <metadata
     id="metadata98">
    <rdf:RDF>
      <cc:Work
         rdf:about="">
        <dc:format>image/svg+xml</dc:format>
        <dc:type
           rdf:resource="http://purl.org/dc/dcmitype/StillImage" />
        <dc:title></dc:title>
      </cc:Work>
    </rdf:RDF>
  </metadata>
  <defs
     id="defs96" />
  <sodipodi:namedview
     pagecolor="#ffffff"
     bordercolor="#666666"
     borderopacity="1"
     objecttolerance="10"
     gridtolerance="10"
     guidetolerance="10"
     inkscape:pageopacity="0"
     inkscape:pageshadow="2"
     inkscape:window-width="1280"
     inkscape:window-height="1366"
     id="namedview94"
     showgrid="false"
     inkscape:zoom="2.9488504"
     inkscape:cx="77.424851"
     inkscape:cy="62.628814"
     inkscape:window-x="1280"
     inkscape:window-y="38"
     inkscape:window-maximized="0"
     inkscape:current-layer="g1186"
     inkscape:document-rotation="0" />
  <g
     id="g1186"
     transform="translate(0,7.2999739)">
    <g
       style="fill:none"
       id="g114"
       transform="matrix(0.63754888,0,0,0.63754888,51.41056,14.03241)">
      <path
         d="M 37,0.98291 V 74.9345"
         stroke="#000000"
         stroke-width="4"
         id="path100" />
      <line
         x1="0.0244141"
         y1="37.958698"
         x2="73.975998"
         y2="37.958698"
         stroke="#000000"
         stroke-width="4"
         id="line102" />
    </g>
    <text
       xml:space="preserve"
       style="font-size:40px;line-height:1.25;font-family:sans-serif;word-spacing:0px"
       x="5.4757891"
       y="-41.060719"
       id="text16"><tspan
         sodipodi:role="line"
         id="tspan14"
         x="5.4757891"
         y="-41.060719" /></text>
    <g
       aria-label="select"
       id="text94"
       style="font-size:20px;line-height:1.25;font-family:sans-serif;word-spacing:0px">
      <path
         d="m 50.710052,92.922962 q -1.88,0 -3.08,-0.86 -1.18,-0.88 -1.32,-2.38 h 1.44 q 0.1,0.92 0.86,1.5 0.78,0.56 2.08,0.56 1.14,0 1.78,-0.54 0.66,-0.54 0.66,-1.34 0,-0.56 -0.36,-0.92 -0.36,-0.36 -0.92,-0.56 -0.54,-0.22 -1.48,-0.46 -1.22,-0.32 -1.98,-0.64 -0.76,-0.32 -1.3,-0.94 -0.52,-0.64 -0.52,-1.7 0,-0.8 0.48,-1.48 0.48,-0.68 1.36,-1.08 0.88,-0.4 2,-0.4 1.76,0 2.84,0.9 1.08,0.88 1.16,2.44 h -1.4 q -0.06,-0.96 -0.76,-1.54 -0.68,-0.6 -1.88,-0.6 -1.06,0 -1.72,0.5 -0.66,0.5 -0.66,1.24 0,0.64 0.38,1.06 0.4,0.4 0.98,0.64 0.58,0.22 1.56,0.5 1.18,0.32 1.88,0.62 0.7,0.3 1.2,0.88 0.5,0.58 0.52,1.54 0,0.88 -0.48,1.58 -0.48,0.68 -1.34,1.08 -0.86,0.4 -1.98,0.4 z"
         style="font-style:normal;font-variant:normal;font-weight:300;font-stretch:normal;font-size:20px;font-family:Poppins;-inkscape-font-specification:'Poppins Light';fill:#000000"
         id="path1188" />
      <path
         d="m 67.030018,86.742962 q 0,0.72 -0.04,1.1 h -9.06 q 0.06,1.24 0.6,2.12 0.54,0.88 1.42,1.34 0.88,0.44 1.92,0.44 1.36,0 2.28,-0.66 0.94,-0.66 1.24,-1.78 h 1.48 q -0.4,1.6 -1.72,2.62 -1.3,1 -3.28,1 -1.54,0 -2.76,-0.68 -1.22,-0.7 -1.92,-1.96 -0.68,-1.28 -0.68,-2.98 0,-1.7 0.68,-2.98 0.68,-1.28 1.9,-1.96 1.22,-0.68 2.78,-0.68 1.56,0 2.72,0.68 1.18,0.68 1.8,1.84 0.64,1.14 0.64,2.54 z m -1.42,-0.04 q 0.02,-1.22 -0.5,-2.08 -0.5,-0.86 -1.38,-1.3 -0.88,-0.44 -1.92,-0.44 -1.56,0 -2.66,1 -1.1,1 -1.22,2.82 z"
         style="font-style:normal;font-variant:normal;font-weight:300;font-stretch:normal;font-size:20px;font-family:Poppins;-inkscape-font-specification:'Poppins Light';fill:#000000"
         id="path1190" />
      <path
         d="m 70.990013,77.962962 v 14.8 h -1.4 v -14.8 z"
         style="font-style:normal;font-variant:normal;font-weight:300;font-stretch:normal;font-size:20px;font-family:Poppins;-inkscape-font-specification:'Poppins Light';fill:#000000"
         id="path1192" />
      <path
         d="m 84.049977,86.742962 q 0,0.72 -0.04,1.1 h -9.06 q 0.06,1.24 0.6,2.12 0.54,0.88 1.42,1.34 0.88,0.44 1.92,0.44 1.36,0 2.28,-0.66 0.94,-0.66 1.24,-1.78 h 1.48 q -0.4,1.6 -1.72,2.62 -1.3,1 -3.28,1 -1.54,0 -2.76,-0.68 -1.22,-0.7 -1.92,-1.96 -0.68,-1.28 -0.68,-2.98 0,-1.7 0.68,-2.98 0.68,-1.28 1.9,-1.96 1.22,-0.68 2.78,-0.68 1.56,0 2.72,0.68 1.18,0.68 1.8,1.84 0.64,1.14 0.64,2.54 z m -1.42,-0.04 q 0.02,-1.22 -0.5,-2.08 -0.5,-0.86 -1.38,-1.3 -0.88,-0.44 -1.92,-0.44 -1.56,0 -2.66,1 -1.1,1 -1.22,2.82 z"
         style="font-style:normal;font-variant:normal;font-weight:300;font-stretch:normal;font-size:20px;font-family:Poppins;-inkscape-font-specification:'Poppins Light';fill:#000000"
         id="path1194" />
      <path
         d="m 85.969972,87.302962 q 0,-1.7 0.68,-2.96 0.68,-1.28 1.88,-1.96 1.2,-0.7 2.74,-0.7 2.02,0 3.32,1 1.32,1 1.7,2.72 h -1.5 q -0.28,-1.18 -1.22,-1.84 -0.92,-0.68 -2.3,-0.68 -1.1,0 -1.98,0.5 -0.88,0.5 -1.4,1.5 -0.5,0.98 -0.5,2.42 0,1.44 0.5,2.44 0.52,1 1.4,1.5 0.88,0.5 1.98,0.5 1.38,0 2.3,-0.66 0.94,-0.68 1.22,-1.88 h 1.5 q -0.38,1.68 -1.7,2.7 -1.32,1.02 -3.32,1.02 -1.54,0 -2.74,-0.68 -1.2,-0.7 -1.88,-1.96 -0.68,-1.28 -0.68,-2.98 z"
         style="font-style:normal;font-variant:normal;font-weight:300;font-stretch:normal;font-size:20px;font-family:Poppins;-inkscape-font-specification:'Poppins Light';fill:#000000"
         id="path1196" />
      <path
         d="m 100.68995,83.022962 v 6.78 q 0,1 0.38,1.38 0.38,0.38 1.34,0.38 h 1.28 v 1.2 h -1.5 q -1.48,0 -2.199999,-0.68 -0.72,-0.7 -0.72,-2.28 v -6.78 h -1.52 v -1.18 h 1.52 v -2.74 h 1.419999 v 2.74 h 3 v 1.18 z"
         style="font-style:normal;font-variant:normal;font-weight:300;font-stretch:normal;font-size:20px;font-family:Poppins;-inkscape-font-specification:'Poppins Light';fill:#000000"
         id="path1198" />
    </g>
    <g
       aria-label="any file up to 4GB"
       id="text94-7"
       style="font-size:12px;line-height:1.25;font-family:sans-serif;word-spacing:0px">
      <path
         d="m 23.670124,115.35699 q 0,-1.008 0.396,-1.764 0.408,-0.768 1.116,-1.176 0.72,-0.42 1.62,-0.42 0.936,0 1.608,0.432 0.684,0.432 0.984,1.104 v -1.44 h 0.84 v 6.552 h -0.84 v -1.452 q -0.312,0.672 -0.996,1.116 -0.672,0.432 -1.608,0.432 -0.888,0 -1.608,-0.42 -0.708,-0.42 -1.116,-1.188 -0.396,-0.768 -0.396,-1.776 z m 5.724,0.012 q 0,-0.792 -0.324,-1.392 -0.324,-0.6 -0.888,-0.924 -0.552,-0.324 -1.224,-0.324 -0.696,0 -1.248,0.312 -0.552,0.312 -0.876,0.912 -0.312,0.588 -0.312,1.404 0,0.804 0.312,1.416 0.324,0.6 0.876,0.924 0.552,0.312 1.248,0.312 0.672,0 1.224,-0.324 0.564,-0.324 0.888,-0.924 0.324,-0.6 0.324,-1.392 z"
         style="font-style:normal;font-variant:normal;font-weight:300;font-stretch:normal;font-size:12px;font-family:Poppins;-inkscape-font-specification:'Poppins Light';fill:#000000"
         id="path1201" />
      <path
         d="m 35.226115,111.97299 q 1.176,0 1.92,0.732 0.744,0.72 0.744,2.1 v 3.84 h -0.828 v -3.744 q 0,-1.068 -0.54,-1.632 -0.528,-0.564 -1.452,-0.564 -0.948,0 -1.512,0.6 -0.564,0.6 -0.564,1.764 v 3.576 h -0.84 v -6.552 h 0.84 v 1.116 q 0.312,-0.6 0.9,-0.912 0.588,-0.324 1.332,-0.324 z"
         style="font-style:normal;font-variant:normal;font-weight:300;font-stretch:normal;font-size:12px;font-family:Poppins;-inkscape-font-specification:'Poppins Light';fill:#000000"
         id="path1203" />
      <path
         d="m 45.150108,112.09299 -3.888,9.636 h -0.876 l 1.272,-3.12 -2.688,-6.516 h 0.924 l 2.232,5.592 2.16,-5.592 z"
         style="font-style:normal;font-variant:normal;font-weight:300;font-stretch:normal;font-size:12px;font-family:Poppins;-inkscape-font-specification:'Poppins Light';fill:#000000"
         id="path1205" />
      <path
         d="m 52.158065,112.80099 h -1.524 v 5.844 h -0.84 v -5.844 h -0.912 v -0.708 h 0.912 v -0.456 q 0,-1.068 0.54,-1.572 0.552,-0.504 1.776,-0.504 v 0.72 q -0.816,0 -1.152,0.312 -0.324,0.312 -0.324,1.044 v 0.456 h 1.524 z"
         style="font-style:normal;font-variant:normal;font-weight:300;font-stretch:normal;font-size:12px;font-family:Poppins;-inkscape-font-specification:'Poppins Light';fill:#000000"
         id="path1207" />
      <path
         d="m 53.898051,110.85699 q -0.252,0 -0.432,-0.18 -0.18,-0.18 -0.18,-0.444 0,-0.264 0.18,-0.432 0.18,-0.18 0.432,-0.18 0.252,0 0.432,0.18 0.18,0.168 0.18,0.432 0,0.264 -0.18,0.444 -0.18,0.18 -0.432,0.18 z m 0.42,1.236 v 6.552 h -0.84 v -6.552 z"
         style="font-style:normal;font-variant:normal;font-weight:300;font-stretch:normal;font-size:12px;font-family:Poppins;-inkscape-font-specification:'Poppins Light';fill:#000000"
         id="path1209" />
      <path
         d="m 57.066029,109.76499 v 8.88 h -0.84 v -8.88 z"
         style="font-style:normal;font-variant:normal;font-weight:300;font-stretch:normal;font-size:12px;font-family:Poppins;-inkscape-font-specification:'Poppins Light';fill:#000000"
         id="path1211" />
      <path
         d="m 64.902008,115.03299 q 0,0.432 -0.024,0.66 h -5.436 q 0.036,0.744 0.36,1.272 0.324,0.528 0.852,0.804 0.528,0.264 1.152,0.264 0.816,0 1.368,-0.396 0.564,-0.396 0.744,-1.068 h 0.888 q -0.24,0.96 -1.032,1.572 -0.78,0.6 -1.968,0.6 -0.924,0 -1.656,-0.408 -0.732,-0.42 -1.152,-1.176 -0.408,-0.768 -0.408,-1.788 0,-1.02 0.408,-1.788 0.408,-0.768 1.14,-1.176 0.732,-0.408 1.668,-0.408 0.936,0 1.632,0.408 0.708,0.408 1.08,1.104 0.384,0.684 0.384,1.524 z m -0.852,-0.024 q 0.012,-0.732 -0.3,-1.248 -0.3,-0.516 -0.828,-0.78 -0.528,-0.264 -1.152,-0.264 -0.936,0 -1.596,0.6 -0.66,0.6 -0.732,1.692 z"
         style="font-style:normal;font-variant:normal;font-weight:300;font-stretch:normal;font-size:12px;font-family:Poppins;-inkscape-font-specification:'Poppins Light';fill:#000000"
         id="path1213" />
      <path
         d="m 75.401984,112.09299 v 6.552 h -0.84 v -1.152 q -0.288,0.612 -0.888,0.936 -0.6,0.324 -1.344,0.324 -1.176,0 -1.92,-0.72 -0.744,-0.732 -0.744,-2.112 v -3.828 h 0.828 v 3.732 q 0,1.068 0.528,1.632 0.54,0.564 1.464,0.564 0.948,0 1.512,-0.6 0.564,-0.6 0.564,-1.764 v -3.564 z"
         style="font-style:normal;font-variant:normal;font-weight:300;font-stretch:normal;font-size:12px;font-family:Poppins;-inkscape-font-specification:'Poppins Light';fill:#000000"
         id="path1215" />
      <path
         d="m 78.149977,113.53299 q 0.312,-0.66 0.984,-1.092 0.684,-0.444 1.62,-0.444 0.888,0 1.596,0.42 0.72,0.408 1.116,1.176 0.408,0.756 0.408,1.764 0,1.008 -0.408,1.776 -0.396,0.768 -1.116,1.188 -0.708,0.42 -1.596,0.42 -0.924,0 -1.608,-0.432 -0.684,-0.444 -0.996,-1.104 v 4.536 h -0.828 v -9.648 h 0.828 z m 4.872,1.824 q 0,-0.816 -0.324,-1.404 -0.312,-0.6 -0.864,-0.912 -0.552,-0.312 -1.248,-0.312 -0.672,0 -1.236,0.324 -0.552,0.324 -0.876,0.924 -0.324,0.6 -0.324,1.392 0,0.792 0.324,1.392 0.324,0.6 0.876,0.924 0.564,0.324 1.236,0.324 0.696,0 1.248,-0.312 0.552,-0.324 0.864,-0.924 0.324,-0.612 0.324,-1.416 z"
         style="font-style:normal;font-variant:normal;font-weight:300;font-stretch:normal;font-size:12px;font-family:Poppins;-inkscape-font-specification:'Poppins Light';fill:#000000"
         id="path1217" />
      <path
         d="m 89.801947,112.80099 v 4.068 q 0,0.6 0.228,0.828 0.228,0.228 0.804,0.228 h 0.768 v 0.72 h -0.9 q -0.888,0 -1.32,-0.408 -0.432,-0.42 -0.432,-1.368 v -4.068 h -0.912 v -0.708 h 0.912 v -1.644 h 0.852 v 1.644 h 1.8 v 0.708 z"
         style="font-style:normal;font-variant:normal;font-weight:300;font-stretch:normal;font-size:12px;font-family:Poppins;-inkscape-font-specification:'Poppins Light';fill:#000000"
         id="path1219" />
      <path
         d="m 95.849935,118.74099 q -0.924,0 -1.668,-0.408 -0.732,-0.42 -1.164,-1.176 -0.42,-0.768 -0.42,-1.788 0,-1.02 0.432,-1.776 0.432,-0.768 1.176,-1.176 0.744,-0.42 1.668,-0.42 0.924,0 1.668,0.42 0.756,0.408 1.176,1.176 0.432,0.756 0.432,1.776 0,1.008 -0.432,1.776 -0.432,0.768 -1.188,1.188 -0.756,0.408 -1.68,0.408 z m 0,-0.732 q 0.648,0 1.2,-0.288 0.552,-0.3 0.888,-0.888 0.348,-0.6 0.348,-1.464 0,-0.864 -0.336,-1.452 -0.336,-0.6 -0.888,-0.888 -0.552,-0.3 -1.2,-0.3 -0.648,0 -1.2,0.3 -0.552,0.288 -0.888,0.888 -0.324,0.588 -0.324,1.452 0,0.864 0.324,1.464 0.336,0.588 0.876,0.888 0.552,0.288 1.2,0.288 z"
         style="font-style:normal;font-variant:normal;font-weight:300;font-stretch:normal;font-size:12px;font-family:Poppins;-inkscape-font-specification:'Poppins Light';fill:#000000"
         id="path1221" />
      <path
         d="m 103.42189,116.60499 v -0.636 l 4.368,-5.88 h 0.996 v 5.784 h 1.284 v 0.732 h -1.284 v 2.04 h -0.828 v -2.04 z m 4.572,-5.592 -3.6,4.86 h 3.6 z"
         style="font-style:normal;font-variant:normal;font-weight:300;font-stretch:normal;font-size:12px;font-family:Poppins;-inkscape-font-specification:'Poppins Light';fill:#000000"
         id="path1223" />
      <path
         d="m 117.92988,112.70499 q -0.36,-0.828 -1.104,-1.296 -0.732,-0.48 -1.728,-0.48 -0.936,0 -1.68,0.432 -0.744,0.432 -1.176,1.236 -0.432,0.792 -0.432,1.848 0,1.056 0.432,1.86 0.432,0.804 1.176,1.236 0.744,0.432 1.68,0.432 0.876,0 1.572,-0.372 0.708,-0.384 1.128,-1.08 0.432,-0.708 0.492,-1.644 h -3.528 v -0.684 h 4.416 v 0.612 q -0.06,1.104 -0.6,2.004 -0.54,0.888 -1.452,1.404 -0.9,0.516 -2.028,0.516 -1.164,0 -2.112,-0.54 -0.948,-0.552 -1.5,-1.524 -0.54,-0.984 -0.54,-2.22 0,-1.236 0.54,-2.208 0.552,-0.984 1.5,-1.524 0.948,-0.552 2.112,-0.552 1.344,0 2.352,0.672 1.008,0.672 1.464,1.872 z"
         style="font-style:normal;font-variant:normal;font-weight:300;font-stretch:normal;font-size:12px;font-family:Poppins;-inkscape-font-specification:'Poppins Light';fill:#000000"
         id="path1225" />
      <path
         d="m 124.63788,114.31299 q 0.708,0.132 1.2,0.72 0.492,0.588 0.492,1.368 0,0.636 -0.324,1.152 -0.312,0.504 -0.924,0.804 -0.612,0.288 -1.464,0.288 h -2.904 v -8.388 h 2.82 q 1.272,0 1.932,0.588 0.672,0.588 0.672,1.524 0,0.78 -0.42,1.272 -0.42,0.48 -1.08,0.672 z m -3.084,-0.348 h 1.956 q 0.852,0 1.308,-0.396 0.468,-0.408 0.468,-1.116 0,-0.696 -0.468,-1.092 -0.456,-0.396 -1.344,-0.396 h -1.92 z m 2.004,3.972 q 0.912,0 1.416,-0.432 0.516,-0.432 0.516,-1.188 0,-0.756 -0.54,-1.2 -0.528,-0.456 -1.428,-0.456 h -1.968 v 3.276 z"
         style="font-style:normal;font-variant:normal;font-weight:300;font-stretch:normal;font-size:12px;font-family:Poppins;-inkscape-font-specification:'Poppins Light';fill:#000000"
         id="path1227" />
    </g>
  </g>
</svg>
