<?xml version="1.0" encoding="UTF-8" standalone="no"?>
<svg
   xmlns:dc="http://purl.org/dc/elements/1.1/"
   xmlns:cc="http://creativecommons.org/ns#"
   xmlns:rdf="http://www.w3.org/1999/02/22-rdf-syntax-ns#"
   xmlns:svg="http://www.w3.org/2000/svg"
   xmlns="http://www.w3.org/2000/svg"
   xmlns:sodipodi="http://sodipodi.sourceforge.net/DTD/sodipodi-0.dtd"
   xmlns:inkscape="http://www.inkscape.org/namespaces/inkscape"
   width="150"
   height="151"
   viewBox="0 0 150 151"
   fill="none"
   version="1.1"
   id="svg92"
   sodipodi:docname="send-more.svg"
   inkscape:version="1.0.2 (e86c870879, 2021-01-15, custom)">
  <metadata
     id="metadata98">
    <rdf:RDF>
      <cc:Work
         rdf:about="">
        <dc:format>image/svg+xml</dc:format>
        <dc:type
           rdf:resource="http://purl.org/dc/dcmitype/StillImage" />
        <dc:title />
      </cc:Work>
    </rdf:RDF>
  </metadata>
  <defs
     id="defs96" />
  <sodipodi:namedview
     pagecolor="#ffffff"
     bordercolor="#666666"
     borderopacity="1"
     objecttolerance="10"
     gridtolerance="10"
     guidetolerance="10"
     inkscape:pageopacity="0"
     inkscape:pageshadow="2"
     inkscape:window-width="1280"
     inkscape:window-height="1366"
     id="namedview94"
     showgrid="false"
     inkscape:zoom="3.2448291"
     inkscape:cx="84.04208"
     inkscape:cy="101.53625"
     inkscape:window-x="0"
     inkscape:window-y="38"
     inkscape:window-maximized="0"
     inkscape:current-layer="svg92"
     inkscape:document-rotation="0" />
  <path
     d="M25.9029 131.351C25.0629 131.351 24.3096 131.211 23.6429 130.931C22.9763 130.637 22.4496 130.237 22.0629 129.731C21.6763 129.211 21.4629 128.617 21.4229 127.951H23.3029C23.3563 128.497 23.6096 128.944 24.0629 129.291C24.5296 129.637 25.1363 129.811 25.8829 129.811C26.5763 129.811 27.1229 129.657 27.5229 129.351C27.9229 129.044 28.1229 128.657 28.1229 128.191C28.1229 127.711 27.9096 127.357 27.4829 127.131C27.0563 126.891 26.3963 126.657 25.5029 126.431C24.6896 126.217 24.0229 126.004 23.5029 125.791C22.9963 125.564 22.5563 125.237 22.1829 124.811C21.8229 124.371 21.6429 123.797 21.6429 123.091C21.6429 122.531 21.8096 122.017 22.1429 121.551C22.4763 121.084 22.9496 120.717 23.5629 120.451C24.1763 120.171 24.8763 120.031 25.6629 120.031C26.8763 120.031 27.8563 120.337 28.6029 120.951C29.3496 121.564 29.7496 122.404 29.8029 123.471H27.9829C27.9429 122.897 27.7096 122.437 27.2829 122.091C26.8696 121.744 26.3096 121.571 25.6029 121.571C24.9496 121.571 24.4296 121.711 24.0429 121.991C23.6563 122.271 23.4629 122.637 23.4629 123.091C23.4629 123.451 23.5763 123.751 23.8029 123.991C24.0429 124.217 24.3363 124.404 24.6829 124.551C25.0429 124.684 25.5363 124.837 26.1629 125.011C26.9496 125.224 27.5896 125.437 28.0829 125.651C28.5763 125.851 28.9963 126.157 29.3429 126.571C29.7029 126.984 29.8896 127.524 29.9029 128.191C29.9029 128.791 29.7363 129.331 29.4029 129.811C29.0696 130.291 28.5963 130.671 27.9829 130.951C27.3829 131.217 26.6896 131.351 25.9029 131.351ZM42.6322 125.271C42.6322 125.617 42.6122 125.984 42.5722 126.371H33.8122C33.8788 127.451 34.2455 128.297 34.9122 128.911C35.5922 129.511 36.4122 129.811 37.3722 129.811C38.1588 129.811 38.8122 129.631 39.3322 129.271C39.8655 128.897 40.2388 128.404 40.4522 127.791H42.4122C42.1188 128.844 41.5322 129.704 40.6522 130.371C39.7722 131.024 38.6788 131.351 37.3722 131.351C36.3322 131.351 35.3988 131.117 34.5722 130.651C33.7588 130.184 33.1188 129.524 32.6522 128.671C32.1855 127.804 31.9522 126.804 31.9522 125.671C31.9522 124.537 32.1788 123.544 32.6322 122.691C33.0855 121.837 33.7188 121.184 34.5322 120.731C35.3588 120.264 36.3055 120.031 37.3722 120.031C38.4122 120.031 39.3322 120.257 40.1322 120.711C40.9322 121.164 41.5455 121.791 41.9722 122.591C42.4122 123.377 42.6322 124.271 42.6322 125.271ZM40.7522 124.891C40.7522 124.197 40.5988 123.604 40.2922 123.111C39.9855 122.604 39.5655 122.224 39.0322 121.971C38.5122 121.704 37.9322 121.571 37.2922 121.571C36.3722 121.571 35.5855 121.864 34.9322 122.451C34.2922 123.037 33.9255 123.851 33.8322 124.891H40.7522ZM50.5345 120.011C51.8678 120.011 52.9478 120.417 53.7745 121.231C54.6012 122.031 55.0145 123.191 55.0145 124.711V131.171H53.2145V124.971C53.2145 123.877 52.9412 123.044 52.3945 122.471C51.8478 121.884 51.1012 121.591 50.1545 121.591C49.1945 121.591 48.4278 121.891 47.8545 122.491C47.2945 123.091 47.0145 123.964 47.0145 125.111V131.171H45.1945V120.211H47.0145V121.771C47.3745 121.211 47.8612 120.777 48.4745 120.471C49.1012 120.164 49.7878 120.011 50.5345 120.011ZM57.4675 125.651C57.4675 124.531 57.6941 123.551 58.1475 122.711C58.6008 121.857 59.2208 121.197 60.0075 120.731C60.8075 120.264 61.7008 120.031 62.6875 120.031C63.5408 120.031 64.3341 120.231 65.0675 120.631C65.8008 121.017 66.3608 121.531 66.7475 122.171V116.371H68.5875V131.171H66.7475V129.111C66.3875 129.764 65.8541 130.304 65.1475 130.731C64.4408 131.144 63.6141 131.351 62.6675 131.351C61.6941 131.351 60.8075 131.111 60.0075 130.631C59.2208 130.151 58.6008 129.477 58.1475 128.611C57.6941 127.744 57.4675 126.757 57.4675 125.651ZM66.7475 125.671C66.7475 124.844 66.5808 124.124 66.2475 123.511C65.9141 122.897 65.4608 122.431 64.8875 122.111C64.3275 121.777 63.7075 121.611 63.0275 121.611C62.3475 121.611 61.7275 121.771 61.1675 122.091C60.6075 122.411 60.1608 122.877 59.8275 123.491C59.4941 124.104 59.3275 124.824 59.3275 125.651C59.3275 126.491 59.4941 127.224 59.8275 127.851C60.1608 128.464 60.6075 128.937 61.1675 129.271C61.7275 129.591 62.3475 129.751 63.0275 129.751C63.7075 129.751 64.3275 129.591 64.8875 129.271C65.4608 128.937 65.9141 128.464 66.2475 127.851C66.5808 127.224 66.7475 126.497 66.7475 125.671ZM90.4951 120.011C91.3485 120.011 92.1085 120.191 92.7751 120.551C93.4418 120.897 93.9685 121.424 94.3551 122.131C94.7418 122.837 94.9351 123.697 94.9351 124.711V131.171H93.1351V124.971C93.1351 123.877 92.8618 123.044 92.3151 122.471C91.7818 121.884 91.0551 121.591 90.1351 121.591C89.1885 121.591 88.4351 121.897 87.8751 122.511C87.3151 123.111 87.0351 123.984 87.0351 125.131V131.171H85.2351V124.971C85.2351 123.877 84.9618 123.044 84.4151 122.471C83.8818 121.884 83.1551 121.591 82.2351 121.591C81.2885 121.591 80.5351 121.897 79.9751 122.511C79.4151 123.111 79.1351 123.984 79.1351 125.131V131.171H77.3151V120.211H79.1351V121.791C79.4951 121.217 79.9751 120.777 80.5751 120.471C81.1885 120.164 81.8618 120.011 82.5951 120.011C83.5151 120.011 84.3285 120.217 85.0351 120.631C85.7418 121.044 86.2685 121.651 86.6151 122.451C86.9218 121.677 87.4285 121.077 88.1351 120.651C88.8418 120.224 89.6285 120.011 90.4951 120.011ZM102.861 131.351C101.834 131.351 100.901 131.117 100.061 130.651C99.2339 130.184 98.5806 129.524 98.1006 128.671C97.6339 127.804 97.4006 126.804 97.4006 125.671C97.4006 124.551 97.6406 123.564 98.1206 122.711C98.6139 121.844 99.2806 121.184 100.121 120.731C100.961 120.264 101.901 120.031 102.941 120.031C103.981 120.031 104.921 120.264 105.761 120.731C106.601 121.184 107.261 121.837 107.741 122.691C108.234 123.544 108.481 124.537 108.481 125.671C108.481 126.804 108.227 127.804 107.721 128.671C107.227 129.524 106.554 130.184 105.701 130.651C104.847 131.117 103.901 131.351 102.861 131.351ZM102.861 129.751C103.514 129.751 104.127 129.597 104.701 129.291C105.274 128.984 105.734 128.524 106.081 127.911C106.441 127.297 106.621 126.551 106.621 125.671C106.621 124.791 106.447 124.044 106.101 123.431C105.754 122.817 105.301 122.364 104.741 122.071C104.181 121.764 103.574 121.611 102.921 121.611C102.254 121.611 101.641 121.764 101.081 122.071C100.534 122.364 100.094 122.817 99.7606 123.431C99.4273 124.044 99.2606 124.791 99.2606 125.671C99.2606 126.564 99.4206 127.317 99.7406 127.931C100.074 128.544 100.514 129.004 101.061 129.311C101.607 129.604 102.207 129.751 102.861 129.751ZM112.854 121.991C113.174 121.364 113.627 120.877 114.214 120.531C114.814 120.184 115.54 120.011 116.394 120.011V121.891H115.914C113.874 121.891 112.854 122.997 112.854 125.211V131.171H111.034V120.211H112.854V121.991ZM128.654 125.271C128.654 125.617 128.634 125.984 128.594 126.371H119.834C119.901 127.451 120.268 128.297 120.934 128.911C121.614 129.511 122.434 129.811 123.394 129.811C124.181 129.811 124.834 129.631 125.354 129.271C125.888 128.897 126.261 128.404 126.474 127.791H128.434C128.141 128.844 127.554 129.704 126.674 130.371C125.794 131.024 124.701 131.351 123.394 131.351C122.354 131.351 121.421 131.117 120.594 130.651C119.781 130.184 119.141 129.524 118.674 128.671C118.208 127.804 117.974 126.804 117.974 125.671C117.974 124.537 118.201 123.544 118.654 122.691C119.108 121.837 119.741 121.184 120.554 120.731C121.381 120.264 122.328 120.031 123.394 120.031C124.434 120.031 125.354 120.257 126.154 120.711C126.954 121.164 127.568 121.791 127.994 122.591C128.434 123.377 128.654 124.271 128.654 125.271ZM126.774 124.891C126.774 124.197 126.621 123.604 126.314 123.111C126.008 122.604 125.588 122.224 125.054 121.971C124.534 121.704 123.954 121.571 123.314 121.571C122.394 121.571 121.608 121.864 120.954 122.451C120.314 123.037 119.948 123.851 119.854 124.891H126.774Z"
     fill="black"
     id="path90" />
  <g
     style="fill:none"
     id="g114"
     transform="translate(37.999794,24.274235)">
    <path
       d="M 37,0.98291 V 74.9345"
       stroke="#000000"
       stroke-width="4"
       id="path100" />
    <line
       x1="0.0244141"
       y1="37.958698"
       x2="73.975998"
       y2="37.958698"
       stroke="#000000"
       stroke-width="4"
       id="line102" />
  </g>
  <text
     xml:space="preserve"
     style="font-size:40px;line-height:1.25;font-family:sans-serif;word-spacing:0px"
     x="5.4757891"
     y="-41.060719"
     id="text16"><tspan
       sodipodi:role="line"
       id="tspan14"
       x="5.4757891"
       y="-41.060719" /></text>
</svg>
