<?xml version="1.0" encoding="UTF-8" standalone="no"?>
<svg
   xmlns:dc="http://purl.org/dc/elements/1.1/"
   xmlns:cc="http://creativecommons.org/ns#"
   xmlns:rdf="http://www.w3.org/1999/02/22-rdf-syntax-ns#"
   xmlns:svg="http://www.w3.org/2000/svg"
   xmlns="http://www.w3.org/2000/svg"
   xmlns:sodipodi="http://sodipodi.sourceforge.net/DTD/sodipodi-0.dtd"
   xmlns:inkscape="http://www.inkscape.org/namespaces/inkscape"
   width="150"
   height="151"
   viewBox="0 0 150 151"
   fill="none"
   version="1.1"
   id="svg92"
   sodipodi:docname="send-more.svg"
   inkscape:version="1.0.2 (e86c870879, 2021-01-15, custom)">
  <metadata
     id="metadata98">
    <rdf:RDF>
      <cc:Work
         rdf:about="">
        <dc:format>image/svg+xml</dc:format>
        <dc:type
           rdf:resource="http://purl.org/dc/dcmitype/StillImage" />
        <dc:title />
      </cc:Work>
    </rdf:RDF>
  </metadata>
  <defs
     id="defs96" />
  <sodipodi:namedview
     pagecolor="#ffffff"
     bordercolor="#666666"
     borderopacity="1"
     objecttolerance="10"
     gridtolerance="10"
     guidetolerance="10"
     inkscape:pageopacity="0"
     inkscape:pageshadow="2"
     inkscape:window-width="1332"
     inkscape:window-height="1366"
     id="namedview94"
     showgrid="false"
     inkscape:zoom="3.2448291"
     inkscape:cx="54.302455"
     inkscape:cy="101.53625"
     inkscape:window-x="0"
     inkscape:window-y="38"
     inkscape:window-maximized="0"
     inkscape:current-layer="svg92"
     inkscape:document-rotation="0" />
  <path
     d="m 42.173871,128.87072 c -0.561839,0 -1.065687,-0.0936 -1.511613,-0.28092 -0.445859,-0.19664 -0.798145,-0.46418 -1.056791,-0.80262 -0.25858,-0.34781 -0.401314,-0.7451 -0.428068,-1.19056 h 1.257448 c 0.03572,0.36519 0.205138,0.66417 0.50833,0.89627 0.312155,0.23142 0.71795,0.3478 1.217317,0.3478 0.463784,0 0.829381,-0.10301 1.096923,-0.30768 0.267542,-0.20533 0.401313,-0.46418 0.401313,-0.77587 0,-0.32104 -0.142667,-0.55782 -0.428067,-0.70898 -0.285334,-0.16053 -0.726778,-0.31704 -1.324334,-0.4682 -0.54398,-0.14314 -0.989906,-0.2856 -1.337711,-0.42807 -0.338842,-0.15183 -0.633138,-0.37055 -0.882889,-0.65548 -0.240788,-0.29429 -0.361182,-0.67822 -0.361182,-1.15043 0,-0.37456 0.111498,-0.71835 0.334427,-1.03004 0.222997,-0.31235 0.539566,-0.55782 0.949776,-0.73574 0.410275,-0.18728 0.878474,-0.28092 1.404596,-0.28092 0.811589,0 1.467068,0.20468 1.966435,0.61535 0.499434,0.41001 0.766976,0.97185 0.802626,1.68552 H 43.56509 c -0.02675,-0.38392 -0.182798,-0.6916 -0.468198,-0.92302 -0.276438,-0.23209 -0.650998,-0.34781 -1.123678,-0.34781 -0.436963,0 -0.784767,0.0936 -1.043414,0.28092 -0.25858,0.18728 -0.387937,0.43208 -0.387937,0.73574 0,0.24079 0.07585,0.44145 0.227411,0.60197 0.160526,0.15116 0.356768,0.27624 0.588594,0.37456 0.240788,0.089 0.570801,0.19129 0.989906,0.30768 0.526189,0.14246 0.954256,0.28493 1.284202,0.42806 0.330013,0.13378 0.610933,0.33845 0.842757,0.61535 0.240789,0.27623 0.365664,0.63741 0.37456,1.08354 0,0.40131 -0.111432,0.7625 -0.334428,1.08355 -0.222929,0.32105 -0.539498,0.57522 -0.949775,0.7625 -0.401313,0.17791 -0.86503,0.26753 -1.391219,0.26753 z m 11.189483,-4.06664 c 0,0.23143 -0.01338,0.4769 -0.04013,0.73575 H 47.46405 c 0.04455,0.72236 0.289814,1.28822 0.73574,1.69889 0.454822,0.40131 1.003283,0.60197 1.645385,0.60197 0.526121,0 0.963151,-0.1204 1.310956,-0.36118 0.356701,-0.25015 0.606385,-0.5799 0.749118,-0.98991 h 1.310957 c -0.196242,0.70431 -0.588593,1.27953 -1.177186,1.72565 -0.588592,0.43676 -1.319919,0.65547 -2.193845,0.65547 -0.69561,0 -1.31992,-0.1565 -1.872796,-0.4682 -0.544046,-0.31235 -0.972114,-0.7538 -1.284202,-1.32433 -0.312155,-0.5799 -0.468199,-1.24875 -0.468199,-2.00656 0,-0.75849 0.151563,-1.42266 0.454822,-1.99319 0.303192,-0.5712 0.726778,-1.00796 1.270825,-1.31096 0.552876,-0.31235 1.186081,-0.4682 1.89955,-0.4682 0.695609,0 1.310956,0.15117 1.84604,0.45482 0.535085,0.30299 0.945294,0.72237 1.230694,1.25746 0.294297,0.52571 0.441445,1.12367 0.441445,1.79252 z m -1.257448,-0.25416 c 0,-0.46418 -0.102603,-0.86081 -0.307673,-1.19056 -0.205139,-0.33911 -0.486058,-0.59328 -0.842758,-0.7625 -0.347805,-0.17858 -0.735742,-0.26754 -1.163809,-0.26754 -0.615347,0 -1.141535,0.19597 -1.578498,0.5886 -0.428068,0.39195 -0.673337,0.93639 -0.735742,1.632 z m 6.542944,-3.26402 c 0.891785,0 1.614149,0.27156 2.167092,0.81601 0.552943,0.53509 0.829381,1.31096 0.829381,2.32761 v 4.32081 h -1.20394 v -4.1469 c 0,-0.73172 -0.182798,-1.28888 -0.548462,-1.67214 -0.365663,-0.39261 -0.86503,-0.5886 -1.498236,-0.5886 -0.642101,0 -1.154913,0.20067 -1.538367,0.60198 -0.374559,0.40131 -0.561839,0.98522 -0.561839,1.7524 v 4.05326 h -1.217317 v -7.33065 h 1.217317 v 1.04341 c 0.240788,-0.37456 0.56632,-0.66484 0.976529,-0.86951 0.419172,-0.20534 0.878408,-0.30768 1.377842,-0.30768 z m 4.637175,3.77235 c 0,-0.74912 0.151562,-1.4046 0.454821,-1.96644 0.303192,-0.5712 0.717883,-1.01264 1.244072,-1.32433 0.535084,-0.31235 1.132573,-0.4682 1.792532,-0.4682 0.570735,0 1.101338,0.13378 1.591876,0.40132 0.490472,0.25817 0.865031,0.60197 1.123677,1.03004 v -3.87936 h 1.230694 v 9.89905 h -1.230694 v -1.37784 c -0.240788,0.43676 -0.597555,0.79795 -1.070169,1.08355 -0.47268,0.27624 -1.025622,0.41468 -1.658761,0.41468 -0.651063,0 -1.244071,-0.16052 -1.779155,-0.48157 -0.526189,-0.32105 -0.94088,-0.77186 -1.244072,-1.35109 -0.303259,-0.57989 -0.454821,-1.24005 -0.454821,-1.97981 z m 6.206978,0.0134 c 0,-0.55314 -0.111498,-1.03472 -0.334427,-1.44473 -0.222997,-0.41067 -0.526189,-0.72236 -0.909644,-0.93639 -0.374559,-0.2234 -0.789249,-0.33443 -1.244071,-0.33443 -0.454821,0 -0.869512,0.10702 -1.244071,0.32105 -0.374559,0.21403 -0.673337,0.52572 -0.896266,0.9364 -0.222997,0.41 -0.334428,0.89158 -0.334428,1.44472 0,0.56184 0.111431,1.05211 0.334428,1.47149 0.222929,0.41001 0.521707,0.72637 0.896266,0.94977 0.374559,0.21404 0.78925,0.32105 1.244071,0.32105 0.454822,0 0.869512,-0.10701 1.244071,-0.32105 0.383455,-0.2234 0.686647,-0.53976 0.909644,-0.94977 0.222929,-0.41938 0.334427,-0.90563 0.334427,-1.45811 z m 15.883711,-3.78572 c 0.570801,0 1.079132,0.1204 1.524991,0.36118 0.445926,0.23142 0.798212,0.58391 1.056791,1.05679 0.258647,0.47221 0.387936,1.04743 0.387936,1.72565 v 4.32081 h -1.20394 v -4.14691 c 0,-0.73172 -0.182798,-1.28888 -0.548461,-1.67213 -0.3567,-0.39262 -0.842758,-0.5886 -1.458104,-0.5886 -0.633139,0 -1.137055,0.20468 -1.511614,0.61535 -0.374559,0.40131 -0.561838,0.98522 -0.561838,1.7524 v 4.03989 h -1.20394 v -4.14691 c 0,-0.73172 -0.182798,-1.28888 -0.548462,-1.67213 -0.356701,-0.39262 -0.842758,-0.5886 -1.458105,-0.5886 -0.633138,0 -1.137054,0.20468 -1.511613,0.61535 -0.374559,0.40131 -0.561839,0.98522 -0.561839,1.7524 v 4.03989 H 76.5612 v -7.33066 h 1.217316 v 1.05679 c 0.240789,-0.38392 0.561839,-0.67821 0.963152,-0.88288 0.410276,-0.20535 0.860617,-0.30768 1.351089,-0.30768 0.615347,0 1.159393,0.13779 1.632007,0.41469 0.47268,0.27624 0.824966,0.68223 1.056791,1.21732 0.205138,-0.5177 0.544047,-0.91901 1.01666,-1.20394 0.47268,-0.2856 0.998869,-0.42807 1.578499,-0.42807 z m 8.270999,7.58482 c -0.686914,0 -1.310956,-0.15651 -1.872794,-0.4682 -0.553211,-0.31235 -0.990174,-0.7538 -1.311225,-1.32434 -0.312155,-0.57989 -0.468199,-1.24875 -0.468199,-2.00656 0,-0.74912 0.160525,-1.40928 0.481576,-1.97981 0.329947,-0.5799 0.775872,-1.02134 1.337979,-1.32434 0.561838,-0.31235 1.190563,-0.4682 1.886172,-0.4682 0.695609,0 1.324334,0.15585 1.886172,0.4682 0.561839,0.303 1.003284,0.73976 1.32433,1.31096 0.329751,0.57053 0.49496,1.23471 0.49496,1.99319 0,0.75781 -0.16989,1.42667 -0.508336,2.00656 -0.330412,0.57054 -0.780552,1.01199 -1.351085,1.32434 -0.571203,0.31169 -1.20394,0.4682 -1.89955,0.4682 z m 0,-1.07017 c 0.436763,0 0.846772,-0.103 1.230694,-0.30767 0.383255,-0.20534 0.690928,-0.51302 0.923021,-0.92302 0.240788,-0.41068 0.361182,-0.90965 0.361182,-1.49824 0,-0.58859 -0.116381,-1.08822 -0.347805,-1.49824 -0.232093,-0.41067 -0.535085,-0.71366 -0.909643,-0.90964 -0.37456,-0.20533 -0.780555,-0.30767 -1.217318,-0.30767 -0.446126,0 -0.856134,0.10234 -1.230693,0.30767 -0.365864,0.19598 -0.66016,0.49897 -0.883157,0.90964 -0.22293,0.41002 -0.334427,0.90965 -0.334427,1.49824 0,0.59729 0.107016,1.10094 0.32105,1.51161 0.222996,0.41001 0.517293,0.71769 0.883156,0.92303 0.365196,0.19597 0.766509,0.29429 1.20394,0.29429 z m 6.683867,-5.19032 c 0.21404,-0.41937 0.51703,-0.7451 0.90965,-0.97652 0.40131,-0.23209 0.8869,-0.34781 1.4581,-0.34781 v 1.25745 h -0.32105 c -1.36446,0 -2.0467,0.73975 -2.0467,2.2206 v 3.98638 h -1.217308 v -7.33066 h 1.217308 z m 10.56792,2.19385 c 0,0.23143 -0.0134,0.47689 -0.0401,0.73574 h -5.85918 c 0.0448,0.72237 0.29028,1.28822 0.73573,1.69889 0.45483,0.40131 1.00329,0.60197 1.64539,0.60197 0.52639,0 0.96315,-0.12039 1.31096,-0.36118 0.35717,-0.25015 0.60665,-0.57989 0.74912,-0.98991 h 1.31095 c -0.19597,0.70431 -0.58859,1.27953 -1.17718,1.72565 -0.58859,0.43677 -1.31965,0.65548 -2.19385,0.65548 -0.69561,0 -1.31965,-0.15651 -1.87279,-0.4682 -0.54378,-0.31235 -0.97185,-0.7538 -1.2842,-1.32434 -0.31169,-0.57989 -0.4682,-1.24875 -0.4682,-2.00656 0,-0.75848 0.15182,-1.42266 0.45482,-1.99319 0.30366,-0.5712 0.72704,-1.00796 1.27083,-1.31096 0.55314,-0.31235 1.18654,-0.4682 1.89954,-0.4682 0.69561,0 1.31096,0.15117 1.84604,0.45483 0.53509,0.30299 0.94576,0.72236 1.2307,1.25745 0.29429,0.52572 0.44144,1.12367 0.44144,1.79253 z m -1.25744,-0.25416 c 0,-0.46419 -0.10234,-0.86082 -0.30768,-1.19057 -0.20467,-0.3391 -0.48559,-0.59327 -0.84275,-0.76249 -0.34781,-0.17859 -0.73575,-0.26755 -1.16382,-0.26755 -0.61534,0 -1.14107,0.19598 -1.57849,0.5886 -0.42807,0.39195 -0.67287,0.93639 -0.73575,1.63201 z"
     fill="#000000"
     id="path90"
     style="stroke-width:0.668856" />
  <text
     xml:space="preserve"
     style="font-size:40px;line-height:1.25;font-family:sans-serif;word-spacing:0px"
     x="5.4757891"
     y="-41.060719"
     id="text16"><tspan
       sodipodi:role="line"
       id="tspan14"
       x="5.4757891"
       y="-41.060719" /></text>
  <g
     style="fill:none"
     id="g23"
     transform="matrix(3.5688094,0,0,3.5688094,28.605478,17.622822)">
    <path
       d="m 2.51,21.5 20.99,-9 -20.99,-9 -0.01,7 15,2 -15,2 z"
       fill="#000000"
       id="path12" />
  </g>
</svg>
